# xmcd
#
# Track frame offsets:
#	150
#	18010
#	41163
#	64168
#	86194
#	110372
#	127717
#	150839
#	167885
#	190418
#
# Disc length: 2852 seconds
#
# Revision: 0
# Processed by: cddbd v1.5.1PL2 Copyright (c) Steve Scherf et al.
# Submitted via: EasyCDDAExtractor 9.0.0.1
#
DISCID=760b220a
DTITLE=Midnight Eleven - Lucky Ring
DYEAR=2005
DGENRE=Blues
TTITLE0=Stopped Clock
TTITLE1=Mine All Mine
TTITLE2=Nail File
TTITLE3=Shakin' The Mann
TTITLE4=The Toll
TTITLE5=Tell Me
TTITLE6=The Maladjuster
TTITLE7=Call The Doctor
TTITLE8=God Make Me Good
TTITLE9=Ballyhoo
EXTD=
EXTT0=
EXTT1=
EXTT2=
EXTT3=
EXTT4=
EXTT5=
EXTT6=
EXTT7=
EXTT8=
EXTT9=
PLAYORDER=
